<svg width="113" height="81" viewBox="0 0 113 81" fill="none" xmlns="http://www.w3.org/2000/svg">
<path d="M0.25 31.8281C0.25 14.7073 14.1292 0.828125 31.25 0.828125H81.25C98.3708 0.828125 112.25 14.7073 112.25 31.8281V49.8281C112.25 66.949 98.3708 80.8281 81.25 80.8281H31.25C14.1292 80.8281 0.25 66.949 0.25 49.8281V31.8281Z" fill="#EEECFE"/>
<path d="M0.25 31.8281C0.25 14.7073 14.1292 0.828125 31.25 0.828125H81.25C98.3708 0.828125 112.25 14.7073 112.25 31.8281V49.8281C112.25 66.949 98.3708 80.8281 81.25 80.8281H31.25C14.1292 80.8281 0.25 66.949 0.25 49.8281V31.8281Z" fill="url(#paint0_linear_1_107)"/>
<path d="M53.634 42.7344H47.7148C44.8886 42.8122 42.5275 43.808 40.6315 45.7219C38.7355 47.6358 37.7489 50.0191 37.6719 52.8719C37.6719 53.458 37.8659 53.9455 38.2539 54.3344C38.6392 54.726 39.1221 54.9219 39.7027 54.9219H61.646C62.2267 54.9219 62.7096 54.726 63.0949 54.3344C63.4829 53.9455 63.6769 53.458 63.6769 52.8719C63.5998 50.0191 62.6133 47.6358 60.7173 45.7219C58.8212 43.808 56.4601 42.8122 53.634 42.7344ZM61.646 53.0469H39.7027C39.5872 53.0469 39.5294 52.9885 39.5294 52.8719C39.6064 50.5274 40.4003 48.5747 41.9111 47.0135C43.4576 45.4885 45.3922 44.6872 47.7148 44.6094H53.634C55.9566 44.6872 57.8911 45.4885 59.4376 47.0135C60.9484 48.5747 61.7423 50.5274 61.8194 52.8719C61.8194 52.9885 61.7616 53.0469 61.646 53.0469ZM59.4376 39.0427C60.4834 39.6288 61.5868 39.9219 62.7481 39.9219C64.6056 39.883 66.1343 39.2385 67.3341 37.9885C68.5724 36.7774 69.2108 35.2344 69.2494 33.3594C69.2108 31.4844 68.5724 29.9413 67.3341 28.7302C66.1343 27.4802 64.6056 26.8358 62.7481 26.7969C62.0134 26.7969 61.2979 26.9135 60.6017 27.1469C60.0596 27.4219 59.8656 27.833 60.0197 28.3802C60.2508 28.8885 60.6375 29.083 61.1796 28.9635C61.6832 28.7691 62.206 28.6719 62.7481 28.6719C64.0635 28.7108 65.167 29.1594 66.0586 30.0177C66.9089 30.9177 67.3533 32.0316 67.3919 33.3594C67.3533 34.6872 66.9089 35.801 66.0586 36.701C65.167 37.5594 64.0635 38.008 62.7481 38.0469C61.9363 38.0469 61.1631 37.8316 60.4283 37.401C59.9247 37.1677 59.4982 37.2858 59.1487 37.7552C58.9175 38.3024 59.0139 38.7316 59.4376 39.0427ZM66.1742 43.6719H63.6769C63.0962 43.7108 62.7867 44.0233 62.7481 44.6094C62.7867 45.1955 63.0962 45.508 63.6769 45.5469H66.1742C68.0702 45.5858 69.6759 46.2497 70.9913 47.5385C72.2682 48.8663 72.9258 50.4872 72.9644 52.401C72.9258 52.7927 72.7126 53.008 72.3246 53.0469H66.4631C65.8825 53.0858 65.5729 53.3983 65.5344 53.9844C65.5729 54.5705 65.8825 54.883 66.4631 54.9219H72.3246C73.0208 54.9219 73.6207 54.6872 74.1243 54.2177C74.5893 53.7094 74.8219 53.1038 74.8219 52.401C74.7448 49.901 73.8931 47.8316 72.2668 46.1927C70.6432 44.5899 68.6123 43.7497 66.1742 43.6719ZM50.6744 40.8594C52.763 40.8205 54.505 40.0788 55.9001 38.6344C57.3311 37.226 58.0658 35.4677 58.1044 33.3594V26.3302C58.1044 25.9774 57.9503 25.7038 57.6421 25.5094C57.3696 25.351 57.0793 25.351 56.7711 25.5094L54.3894 26.6802L51.0789 25.0385C50.8092 24.883 50.5395 24.883 50.2699 25.0385L46.9594 26.6802L44.5776 25.5094C44.2694 25.351 43.9805 25.351 43.7108 25.5094C43.3999 25.7038 43.2444 25.9774 43.2444 26.3302V33.3594C43.2829 35.4677 44.0176 37.226 45.4486 38.6344C46.8438 40.0788 48.5857 40.8205 50.6744 40.8594ZM45.1019 27.851L46.9594 28.7885L50.6744 26.9135L54.3894 28.7885L56.2469 27.851V31.4844H45.1019V27.851ZM56.2469 33.3594C56.2083 34.9622 55.6662 36.2899 54.6205 37.3427C53.5776 38.3983 52.2622 38.9455 50.6744 38.9844C49.0866 38.9455 47.7712 38.3983 46.7282 37.3427C45.6825 36.2899 45.1404 34.9622 45.1019 33.3594H56.2469Z" fill="white"/>
<defs>
<linearGradient id="paint0_linear_1_107" x1="112.25" y1="0.828125" x2="109.103" y2="84.9029" gradientUnits="userSpaceOnUse">
<stop stop-color="#31A0FF"/>
<stop offset="1" stop-color="#0066FF"/>
</linearGradient>
</defs>
</svg>
