<svg width="113" height="81" viewBox="0 0 113 81" fill="none" xmlns="http://www.w3.org/2000/svg">
<path d="M0.75 31.8281C0.75 14.7073 14.6292 0.828125 31.75 0.828125H81.75C98.8708 0.828125 112.75 14.7073 112.75 31.8281V49.8281C112.75 66.949 98.8708 80.8281 81.75 80.8281H31.75C14.6292 80.8281 0.75 66.949 0.75 49.8281V31.8281Z" fill="#EEECFE"/>
<path d="M0.75 31.8281C0.75 14.7073 14.6292 0.828125 31.75 0.828125H81.75C98.8708 0.828125 112.75 14.7073 112.75 31.8281V49.8281C112.75 66.949 98.8708 80.8281 81.75 80.8281H31.75C14.6292 80.8281 0.75 66.949 0.75 49.8281V31.8281Z" fill="url(#paint0_linear_1_141)"/>
<path d="M66.4778 33.3009C66.4367 34.2371 66.1278 35.0176 65.5513 35.6426C64.9336 36.2676 64.1607 36.5801 63.2328 36.5801C62.3076 36.5801 61.5362 36.2676 60.9185 35.6426C60.3392 35.0176 60.0303 34.2371 59.9919 33.3009C60.0303 32.4037 60.3392 31.6426 60.9185 31.0176C61.5362 30.3926 62.3076 30.0593 63.2328 30.0176C64.1607 30.0593 64.9336 30.3926 65.5513 31.0176C66.1278 31.6426 66.4367 32.4037 66.4778 33.3009ZM63.2328 34.7051C64.0811 34.6662 64.5451 34.1982 64.6247 33.3009C64.6247 32.9093 64.4888 32.5773 64.217 32.3051C63.948 32.0301 63.6199 31.8926 63.2328 31.8926C62.8457 31.8926 62.5176 32.0301 62.2486 32.3051C61.9796 32.5773 61.845 32.9093 61.845 33.3009C61.9219 34.1982 62.3845 34.6662 63.2328 34.7051ZM62.1333 51.8759L56.2239 54.8051C55.9164 54.9607 55.6281 54.9607 55.3591 54.8051C55.0489 54.6107 54.8938 54.3371 54.8938 53.9843V47.2468C54.8553 45.7607 54.3337 44.4718 53.3289 43.3801C52.25 42.3634 50.9761 41.8357 49.5073 41.7968H42.8484C42.4998 41.7968 42.2294 41.6412 42.0372 41.3301C41.8834 41.0551 41.8834 40.7621 42.0372 40.4509L44.9322 34.4718C45.6652 33.144 46.7853 32.4412 48.2925 32.3634H53.9095C55.4936 29.8634 57.2507 28.0468 59.1806 26.9134C61.1106 25.819 63.0214 25.194 64.913 25.0384C66.8045 24.844 68.4833 24.9023 69.9494 25.2134C70.6439 25.4107 71.0887 25.8607 71.2836 26.5634C71.5911 28.0468 71.6487 29.7454 71.4566 31.6593C71.3028 33.5732 70.6659 35.5065 69.5458 37.4593C68.4641 39.4148 66.6686 41.1732 64.1594 42.7343V48.4759C64.1209 50.0009 63.4456 51.1343 62.1333 51.8759ZM55.9933 44.0801C59.5073 43.144 62.2294 41.9732 64.1594 40.5676C66.0509 39.1204 67.4017 37.6357 68.2115 36.1134C69.0242 34.5107 69.5074 32.9287 69.6611 31.3676C69.7764 29.7648 69.7188 28.319 69.4881 27.0301C68.2143 26.7968 66.7853 26.7384 65.2012 26.8551C63.6583 27.0107 62.0949 27.4996 60.5108 28.3218C58.9679 29.1412 57.5005 30.5079 56.1086 32.4218C54.7194 34.3746 53.5815 37.1287 52.6947 40.6843C53.3893 41.0343 54.0262 41.5023 54.6055 42.0884C55.1848 42.6746 55.6474 43.3384 55.9933 44.0801ZM56.7469 52.4593L61.2644 50.1176C61.9205 49.8037 62.2678 49.2565 62.3063 48.4759V43.7884C60.6837 44.6079 58.7922 45.2718 56.6316 45.7801C56.7084 46.2884 56.7469 46.7773 56.7469 47.2468V52.4593ZM50.8992 40.0384C51.4401 37.8134 52.1154 35.8801 52.9253 34.2384H48.2925C47.5211 34.2773 46.961 34.6482 46.6123 35.3509L44.3556 39.9218H49.5073C49.9329 39.9218 50.3968 39.9607 50.8992 40.0384ZM51.5911 52.4593C50.5506 53.3982 49.2767 54.0426 47.7695 54.3926C46.3035 54.7065 44.9912 54.8829 43.8327 54.9218C42.6357 54.9218 41.9987 54.9218 41.9219 54.9218C41.9219 54.844 41.9219 54.1996 41.9219 52.9884C41.9603 51.8162 42.1346 50.469 42.4449 48.9468C42.7908 47.4607 43.4277 46.2107 44.3556 45.1968C45.3961 44.1801 46.5931 43.6718 47.9466 43.6718C49.2973 43.6718 50.5121 44.1801 51.5911 45.1968C52.5574 46.2496 53.0406 47.4607 53.0406 48.8301C53.0406 50.1968 52.5574 51.4065 51.5911 52.4593ZM50.2609 46.4843C49.5664 45.8593 48.7949 45.5468 47.9466 45.5468C47.0955 45.5468 46.3419 45.8593 45.6858 46.4843C44.7222 47.5787 44.1237 49.1996 43.8903 51.3468C43.8519 51.9718 43.8134 52.5384 43.775 53.0468C44.2774 53.0079 44.8375 52.969 45.4552 52.9301C47.5773 52.6968 49.1793 52.0912 50.2609 51.1134C50.8786 50.4496 51.1875 49.6884 51.1875 48.8301C51.1875 47.9301 50.8786 47.1482 50.2609 46.4843Z" fill="white"/>
<defs>
<linearGradient id="paint0_linear_1_141" x1="112.75" y1="0.828125" x2="109.603" y2="84.9029" gradientUnits="userSpaceOnUse">
<stop stop-color="#31A0FF"/>
<stop offset="1" stop-color="#0066FF"/>
</linearGradient>
</defs>
</svg>
