<svg width="33" height="34" viewBox="0 0 33 34" fill="none" xmlns="http://www.w3.org/2000/svg">
<path d="M16.5 16.1566L16.64 15.9408C17.6733 14.9781 18.8217 14.4967 20.085 14.4967C21.3983 14.4967 22.5467 14.9781 23.53 15.9408C24.47 16.9514 24.94 18.1077 24.94 19.4095C24.94 20.7114 24.47 21.8916 23.53 22.9502L18.115 28.5156C17.6483 28.9507 17.11 29.1683 16.5 29.1683C15.89 29.1683 15.3517 28.9507 14.885 28.5156L9.47 22.9502C8.53333 21.8916 8.065 20.7114 8.065 19.4095C8.065 18.1077 8.53333 16.9514 9.47 15.9408C10.4533 14.9781 11.6017 14.4967 12.915 14.4967C14.1817 14.4967 15.3067 14.9781 16.29 15.9408L16.5 16.1566ZM11.085 21.2903L16.5 26.8558L21.915 21.2903C22.4317 20.7593 22.69 20.1324 22.69 19.4095C22.69 18.7346 22.4317 18.1334 21.915 17.6058C21.3517 17.0747 20.7417 16.8092 20.085 16.8092C19.4283 16.8092 18.8433 17.0747 18.33 17.6058L16.5 19.4095L14.67 17.6058C14.1567 17.0747 13.5717 16.8092 12.915 16.8092C12.2117 16.8092 11.6017 17.0747 11.085 17.6058C10.5717 18.1334 10.315 18.7346 10.315 19.4095C10.315 20.1324 10.5717 20.7593 11.085 21.2903ZM31.9 10.3034C32.1333 10.8824 32.25 11.5093 32.25 12.1842V28.5156C32.2033 29.8175 31.7583 30.9018 30.915 31.7685C30.0717 32.6353 29.0167 33.0927 27.75 33.1406H5.25C3.98333 33.0927 2.92833 32.6353 2.085 31.7685C1.24167 30.9018 0.796667 29.8175 0.75 28.5156V12.1842C0.75 11.5093 0.89 10.8824 1.17 10.3034L4.055 3.50979C4.89833 1.77627 6.28167 0.861551 8.205 0.765625H24.795C26.7183 0.861551 28.1017 1.77627 28.945 3.50979L31.9 10.3034ZM17.625 10.0156H29.295L26.905 4.45021C26.485 3.58345 25.7817 3.12609 24.795 3.07812H17.625V10.0156ZM3 12.3281V28.5156C3 29.1905 3.21167 29.7438 3.635 30.1755C4.055 30.6106 4.59333 30.8281 5.25 30.8281H27.75C28.4067 30.8281 28.945 30.6106 29.365 30.1755C29.7883 29.7438 30 29.1905 30 28.5156V12.3281H3ZM15.375 3.07812H8.205C7.21833 3.12609 6.515 3.58345 6.095 4.45021L3.705 10.0156H15.375V3.07812Z" fill="white"/>
</svg>
