<svg width="33" height="38" viewBox="0 0 33 38" fill="none" xmlns="http://www.w3.org/2000/svg">
<path d="M20.085 22.4219H12.915C9.49167 22.5178 6.63167 23.746 4.335 26.1065C2.03833 28.4669 0.843333 31.4064 0.75 34.9248C0.75 35.6477 0.985 36.2489 1.455 36.7285C1.92167 37.2116 2.50667 37.4531 3.21 37.4531H29.79C30.4933 37.4531 31.0783 37.2116 31.545 36.7285C32.015 36.2489 32.25 35.6477 32.25 34.9248C32.1567 31.4064 30.9617 28.4669 28.665 26.1065C26.3683 23.746 23.5083 22.5178 20.085 22.4219ZM29.79 35.1406H3.21C3.07 35.1406 3 35.0687 3 34.9248C3.09333 32.0333 4.055 29.6249 5.885 27.6995C7.75833 25.8187 10.1017 24.8303 12.915 24.7344H20.085C22.8983 24.8303 25.2417 25.8187 27.115 27.6995C28.945 29.6249 29.9067 32.0333 30 34.9248C30 35.0687 29.93 35.1406 29.79 35.1406ZM16.5 20.1094C19.03 20.0614 21.14 19.1467 22.83 17.3652C24.5633 15.6283 25.4533 13.4597 25.5 10.8594V2.19007C25.5 1.75498 25.3133 1.41752 24.94 1.17771C24.61 0.982431 24.2583 0.982431 23.885 1.17771L21 2.62174L16.99 0.597014C16.6633 0.405162 16.3367 0.405162 16.01 0.597014L12 2.62174L9.115 1.17771C8.74167 0.982431 8.39167 0.982431 8.065 1.17771C7.68833 1.41752 7.5 1.75498 7.5 2.19007V10.8594C7.54667 13.4597 8.43667 15.6283 10.17 17.3652C11.86 19.1467 13.97 20.0614 16.5 20.1094ZM9.75 4.06576L12 5.22201L16.5 2.90951L21 5.22201L23.25 4.06576V8.54688H9.75V4.06576ZM23.25 10.8594C23.2033 12.8361 22.5467 14.4737 21.28 15.7722C20.0167 17.074 18.4233 17.7489 16.5 17.7969C14.5767 17.7489 12.9833 17.074 11.72 15.7722C10.4533 14.4737 9.79667 12.8361 9.75 10.8594H23.25Z" fill="white"/>
</svg>
