<svg width="45" height="34" viewBox="0 0 45 34" fill="none" xmlns="http://www.w3.org/2000/svg">
<path d="M38.25 9.6559C38.1567 9.70387 38.0867 9.75183 38.04 9.79979C37.3367 10.4747 36.5867 11.2455 35.79 12.1123C33.8667 9.84775 32.3667 8.28211 31.29 7.41535C31.29 7.36738 31.2667 7.3434 31.22 7.3434C28.5 9.89572 26.5067 12.1842 25.24 14.209C24.0233 16.1823 23.25 17.7959 22.92 19.0498C22.5933 20.3516 22.4533 21.1944 22.5 21.5781C22.5933 24.8533 23.695 27.5752 25.805 29.7438C27.915 31.9124 30.5633 33.0447 33.75 33.1406C36.9367 33.0447 39.585 31.9124 41.695 29.7438C43.805 27.5752 44.9067 24.8533 45 21.5781C44.9067 19.7007 44.3683 17.8696 43.385 16.0847C42.3517 14.3511 41.2967 12.8814 40.22 11.6755C39.14 10.5209 38.4833 9.84775 38.25 9.6559ZM33.75 30.8281C31.22 30.7802 29.11 29.8654 27.42 28.084C25.6867 26.347 24.7967 24.1784 24.75 21.5781C24.7967 20.1324 25.4067 18.3989 26.58 16.3776C27.75 14.3528 29.2967 12.3761 31.22 10.4473C32.5333 11.7012 33.7283 13.075 34.805 14.5687L35.65 15.7249L36.565 14.6406C37.0783 13.9657 37.64 13.3388 38.25 12.7598C39.6567 14.3015 40.7583 15.9168 41.555 17.6058C42.3517 19.2913 42.75 20.6154 42.75 21.5781C42.7033 24.1784 41.8133 26.347 40.08 28.084C38.39 29.8654 36.28 30.7802 33.75 30.8281ZM11.25 8.85938V18.1094C11.2967 18.8322 11.6717 19.2177 12.375 19.2656C13.0783 19.2177 13.4533 18.8322 13.5 18.1094V8.85938C13.4533 8.1365 13.0783 7.75109 12.375 7.70312C11.6717 7.75109 11.2967 8.1365 11.25 8.85938ZM4.5 30.8281C3.84333 30.8281 3.305 30.6106 2.885 30.1755C2.46167 29.7438 2.25 29.1905 2.25 28.5156V5.39062C2.25 4.71572 2.46167 4.16243 2.885 3.73076C3.305 3.29567 3.84333 3.07812 4.5 3.07812H27C27.6567 3.07812 28.195 3.29567 28.615 3.73076C29.0383 4.16243 29.25 4.71572 29.25 5.39062V6.04326C29.3433 5.94391 29.4133 5.87025 29.46 5.82229C29.5533 5.72637 29.695 5.60646 29.885 5.46257C30.0717 5.31868 30.5633 4.93326 31.36 4.30632C31.08 3.24771 30.565 2.40493 29.815 1.77799C29.015 1.10308 28.0767 0.765625 27 0.765625H4.5C3.23333 0.813588 2.17833 1.27095 1.335 2.13771C0.491667 3.00447 0.0466667 4.08877 0 5.39062V28.5156C0.0466667 29.8175 0.491667 30.9018 1.335 31.7685C2.17833 32.6353 3.23333 33.0927 4.5 33.1406H26.295C25.3583 32.4657 24.4917 31.6949 23.695 30.8281H4.5ZM15.75 8.85938V18.1094C15.7967 18.8322 16.1717 19.2177 16.875 19.2656C17.5783 19.2177 17.9533 18.8322 18 18.1094V8.85938C17.9533 8.1365 17.5783 7.75109 16.875 7.70312C16.1717 7.75109 15.7967 8.1365 15.75 8.85938ZM6.75 8.85938V18.1094C6.79667 18.8322 7.17167 19.2177 7.875 19.2656C8.57833 19.2177 8.95333 18.8322 9 18.1094V8.85938C8.95333 8.1365 8.57833 7.75109 7.875 7.70312C7.17167 7.75109 6.79667 8.1365 6.75 8.85938ZM36.845 17.0251L35.015 19.1217C34.9683 19.0258 34.8983 18.9299 34.805 18.834C34.4283 18.3029 34.1233 17.9175 33.89 17.6777C33.6567 17.3865 33.095 16.7356 32.205 15.7249C31.9683 16.0127 31.7333 16.3022 31.5 16.5934C30.3267 17.9912 29.46 19.1234 28.9 19.9902C28.3367 20.9049 28.055 21.8436 28.055 22.8063C28.055 24.4439 28.5933 25.7937 29.67 26.8558C30.75 27.9144 32.1333 28.4677 33.82 28.5156C35.04 28.5156 36.165 28.1542 37.195 27.4313C38.3217 26.6125 39.025 25.5522 39.305 24.2503C39.6317 22.904 39.4683 21.5798 38.815 20.278C38.765 20.1821 38.6933 20.0622 38.6 19.9183C38.5067 19.771 38.3667 19.5294 38.18 19.1937C37.9 18.7586 37.455 18.0357 36.845 17.0251ZM33.82 26.2031C32.8367 26.2031 31.9933 25.8897 31.29 25.2627C30.6333 24.6837 30.305 23.8649 30.305 22.8063C30.305 21.8916 30.9617 20.7114 32.275 19.2656C32.4617 19.5054 32.9067 20.0844 33.61 21.0026C34.36 21.9653 34.805 22.5185 34.945 22.6624L36.49 20.8535C37.3833 22.4432 37.455 23.721 36.705 24.6872C36.0017 25.6498 35.04 26.1552 33.82 26.2031Z" fill="white"/>
</svg>
