<svg width="113" height="81" viewBox="0 0 113 81" fill="none" xmlns="http://www.w3.org/2000/svg">
<path d="M0.25 31.8281C0.25 14.7073 14.1292 0.828125 31.25 0.828125H81.25C98.3708 0.828125 112.25 14.7073 112.25 31.8281V49.8281C112.25 66.949 98.3708 80.8281 81.25 80.8281H31.25C14.1292 80.8281 0.25 66.949 0.25 49.8281V31.8281Z" fill="#EEECFE"/>
<path d="M0.25 31.8281C0.25 14.7073 14.1292 0.828125 31.25 0.828125H81.25C98.3708 0.828125 112.25 14.7073 112.25 31.8281V49.8281C112.25 66.949 98.3708 80.8281 81.25 80.8281H31.25C14.1292 80.8281 0.25 66.949 0.25 49.8281V31.8281Z" fill="url(#paint0_linear_1_131)"/>
<path d="M55.032 44.3177C54.6065 44.7066 54.181 44.7066 53.7555 44.3177L50.5145 41.0344C50.1274 40.6066 50.1274 40.1774 50.5145 39.7469C50.9401 39.3552 51.3642 39.3552 51.787 39.7469L54.3937 42.326L60.2414 36.4635C60.6669 36.0747 61.0925 36.0747 61.518 36.4635C61.9023 36.8941 61.9023 37.3247 61.518 37.7552L55.032 44.3177ZM61.2833 27.6177C63.3313 27.2649 65.146 27.8316 66.7273 29.3177C68.1961 30.9177 68.7562 32.7538 68.4075 34.826C69.2174 35.3705 69.8735 36.0927 70.3759 36.9927C70.8399 37.851 71.0719 38.808 71.0719 39.8635C70.995 42.1302 70.1069 43.8483 68.4075 45.0177C68.7562 47.0899 68.1961 48.926 66.7273 50.526C65.146 52.0122 63.3313 52.5788 61.2833 52.226C60.089 53.9455 58.4102 54.8441 56.2469 54.9219C55.2036 54.9219 54.2386 54.6872 53.3519 54.2177C52.4624 53.7094 51.7486 53.0455 51.2105 52.226C49.1624 52.5788 47.3478 52.0122 45.7664 50.526C44.2977 48.926 43.7376 47.0899 44.0863 45.0177C42.3869 43.8483 41.4987 42.1302 41.4219 39.8635C41.4219 38.808 41.6539 37.851 42.1178 36.9927C42.6202 36.0927 43.2764 35.3705 44.0863 34.826C43.7376 32.7538 44.2977 30.9177 45.7664 29.3177C47.3478 27.8316 49.1624 27.2649 51.2105 27.6177C51.7486 26.7983 52.4624 26.1344 53.3519 25.626C54.2002 25.1566 55.146 24.9219 56.1892 24.9219C58.4294 24.9997 60.1275 25.8983 61.2833 27.6177ZM52.0794 29.7844L51.3835 29.551C49.7994 29.1205 48.3704 29.4913 47.0966 30.6635C45.938 31.9524 45.5715 33.3983 45.997 35.001L46.2276 35.7052L45.5317 36.1135C44.1041 36.933 43.3519 38.183 43.275 39.8635C43.3519 41.6219 44.1041 42.9108 45.5317 43.7302L46.2276 44.1427L45.997 44.8427C45.5715 46.4455 45.938 47.8913 47.0966 49.1802C48.3704 50.3524 49.7994 50.7233 51.3835 50.2927L52.0794 50.0594L52.483 50.7635C53.2544 52.208 54.5091 52.9691 56.2469 53.0469C57.9463 52.9691 59.2009 52.208 60.0108 50.7635L60.4185 50.0594L61.1103 50.2927C62.6944 50.7233 64.1233 50.3524 65.3972 49.1802C66.5557 47.8913 66.9222 46.4455 66.4967 44.8427L66.2661 44.1427L66.9621 43.7302C68.3896 42.9108 69.1419 41.6219 69.2187 39.8635C69.1419 38.183 68.3896 36.933 66.9621 36.1135L66.2661 35.7052L66.4967 35.001C66.9222 33.3983 66.5557 31.9524 65.3972 30.6635C64.1233 29.4913 62.6944 29.1205 61.1103 29.551L60.4185 29.7844L60.0108 29.0802C59.2009 27.6358 57.9463 26.8552 56.2469 26.7385C55.437 26.7385 54.6848 26.9538 53.9902 27.3844C53.334 27.8122 52.8316 28.3774 52.483 29.0802L52.0794 29.7844Z" fill="white"/>
<defs>
<linearGradient id="paint0_linear_1_131" x1="112.25" y1="0.828125" x2="109.103" y2="84.9029" gradientUnits="userSpaceOnUse">
<stop stop-color="#31A0FF"/>
<stop offset="1" stop-color="#0066FF"/>
</linearGradient>
</defs>
</svg>
