<svg width="113" height="81" viewBox="0 0 113 81" fill="none" xmlns="http://www.w3.org/2000/svg">
<path d="M0.75 31.8281C0.75 14.7073 14.6292 0.828125 31.75 0.828125H81.75C98.8708 0.828125 112.75 14.7073 112.75 31.8281V49.8281C112.75 66.949 98.8708 80.8281 81.75 80.8281H31.75C14.6292 80.8281 0.75 66.949 0.75 49.8281V31.8281Z" fill="#EEECFE"/>
<path d="M0.75 31.8281C0.75 14.7073 14.6292 0.828125 31.75 0.828125H81.75C98.8708 0.828125 112.75 14.7073 112.75 31.8281V49.8281C112.75 66.949 98.8708 80.8281 81.75 80.8281H31.75C14.6292 80.8281 0.75 66.949 0.75 49.8281V31.8281Z" fill="url(#paint0_linear_1_119)"/>
<path d="M68.7922 26.7969C69.3715 26.8358 69.6803 27.1483 69.7187 27.7344C69.6803 28.3205 69.3715 28.633 68.7922 28.6719H46.5547C45.7832 28.7108 45.1271 28.9844 44.5863 29.4927C44.0839 30.0399 43.8134 30.7038 43.775 31.4844V48.3594C43.8134 49.1399 44.0839 49.8038 44.5863 50.351C45.1271 50.8594 45.7832 51.133 46.5547 51.1719H66.9391C67.7105 51.133 68.3667 50.8594 68.9075 50.351C69.4099 49.8038 69.6803 49.1399 69.7187 48.3594V35.2344C69.6803 34.4538 69.4099 33.7899 68.9075 33.2427C68.3667 32.7344 67.7105 32.4608 66.9391 32.4219H48.4078C47.8285 32.383 47.5197 32.0705 47.4812 31.4844C47.5197 30.8983 47.8285 30.5858 48.4078 30.5469H66.9391C68.2513 30.5858 69.3522 31.0344 70.2417 31.8927C71.0901 32.7927 71.5334 33.9066 71.5719 35.2344V48.3594C71.5334 49.6872 71.0901 50.801 70.2417 51.701C69.3522 52.5594 68.2513 53.008 66.9391 53.0469H46.5547C45.2424 53.008 44.1415 52.5594 43.252 51.701C42.4037 50.801 41.9603 49.6872 41.9219 48.3594V31.4844C41.9603 30.1566 42.4037 29.0427 43.252 28.1427C44.1415 27.2844 45.2424 26.8358 46.5547 26.7969H68.7922ZM62.7716 41.7969C62.8485 40.9385 63.3111 40.4705 64.1594 40.3927C65.0077 40.4705 65.4717 40.9385 65.5513 41.7969C65.4717 42.6552 65.0077 43.1247 64.1594 43.2052C63.3111 43.1247 62.8485 42.6552 62.7716 41.7969Z" fill="white"/>
<defs>
<linearGradient id="paint0_linear_1_119" x1="112.75" y1="0.828125" x2="109.603" y2="84.9029" gradientUnits="userSpaceOnUse">
<stop stop-color="#31A0FF"/>
<stop offset="1" stop-color="#0066FF"/>
</linearGradient>
</defs>
</svg>
